<?xml version="1.0" encoding="UTF-8"?>
<svg id="Layer_2" data-name="Layer 2" xmlns="http://www.w3.org/2000/svg" xmlns:xlink="http://www.w3.org/1999/xlink" viewBox="0 0 1748.81 1187.47">
	<defs>
		<style>
			.cls-42, {
			stroke-width: 0px;
			}
			
			.cls-42 {
			fill: #fff;
			}
		</style>
	</defs>
	<g id="Layer_1-2" data-name="Layer 1">
		<g class="cls-269">
			<g>
				<rect class="cls-42" x="1686.59" y="616.33" width="5" height="5" />
			</g>
			<rect class="cls-42" x="1636.59" y="641.82" width="5" height="5" />
			<g>
				<rect class="cls-42" x="1436.57" y="737.19" width="5" height="5" />
			</g>
			<g>
				<rect class="cls-42" x="1667.18" y="626.18" width="5" height="5" />
			</g>
			<g>
				<rect class="cls-42" x="1619.06" y="649.69" width="5" height="5" />
			</g>
			<g>
				<rect class="cls-42" x="1598.37" y="660.34" width="5" height="5" />
			</g>
			<rect class="cls-42" x="1651.78" y="633.76" width="5" height="5" />
			<g>
				<rect class="cls-42" x="1578.13" y="670.76" width="5" height="5" />
			</g>
			<rect class="cls-42" x="1528.26" y="695.49" width="5" height="5" />
			<rect class="cls-42" x="1554.01" y="682.13" width="5" height="5" />
			<rect class="cls-42" x="1510.43" y="702.8" width="5" height="5" />
			<g>
				<rect class="cls-42" x="1490.42" y="713.06" width="5" height="5" />
			</g>
			<rect class="cls-42" x="1473.7" y="721.32" width="5" height="5" />
			<g>
				<rect class="cls-42" x="1257.39" y="793.35" width="5" height="5" />
			</g>
			<g>
				<rect class="cls-42" x="1160.79" y="804.35" width="5" height="5" />
			</g>
			<g>
				<rect class="cls-42" x="1002.66" y="760.04" width="5" height="5" />
			</g>
			<g>
				<rect class="cls-42" x="958.99" y="736.76" width="5" height="5" />
			</g>
			<g>
				<rect class="cls-42" x="898.21" y="718.05" width="5" height="5" />
			</g>
			<g>
				<rect class="cls-42" x="760.23" y="687.62" width="5" height="5" />
			</g>
			<g>
				<rect class="cls-42" x="1047.46" y="779.77" width="5" height="5" />
			</g>
			<g>
				<rect class="cls-42" x="1453.04" y="728.08" width="5" height="5" />
			</g>
			<g>
				<rect class="cls-42" x="1226.42" y="800.08" width="5" height="5" />
			</g>
			<g>
				<rect class="cls-42" x="1109.66" y="801.6" width="5" height="5" />
			</g>
			<g>
				<rect class="cls-42" x="698.66" y="678.37" width="5" height="5" />
			</g>
			<g>
				<rect class="cls-42" x="872.71" y="715.28" width="5" height="5" />
			</g>
			<g>
				<rect class="cls-42" x="782.18" y="689.85" width="5" height="5" />
			</g>
			<g>
				<rect class="cls-42" x="1088.87" y="797.89" width="5" height="5" />
			</g>
			<g>
				<rect class="cls-42" x="918.85" y="721.71" width="5" height="5" />
			</g>
			<g>
				<rect class="cls-42" x="852.21" y="710.74" width="5" height="5" />
			</g>
			<g>
				<rect class="cls-42" x="717.59" y="679.74" width="5" height="5" />
			</g>
			<g>
				<rect class="cls-42" x="1296.58" y="781.89" width="5" height="5" />
			</g>
			<g>
				<rect class="cls-42" x="1417" y="741.43" width="5" height="5" />
			</g>
			<g>
				<rect class="cls-42" x="1182.36" y="803.81" width="5" height="5" />
			</g>
			<g>
				<rect class="cls-42" x="981.36" y="742.41" width="5" height="5" />
			</g>
			<g>
				<rect class="cls-42" x="1391.92" y="750.16" width="5" height="5" />
			</g>
			<g>
				<rect class="cls-42" x="1368.64" y="757.68" width="5" height="5" />
			</g>
			<g>
				<rect class="cls-42" x="1315.46" y="776.22" width="5" height="5" />
			</g>
			<g>
				<rect class="cls-42" x="1142.26" y="803.45" width="5" height="5" />
			</g>
			<g>
				<rect class="cls-42" x="1072.24" y="789.75" width="5" height="5" />
			</g>
			<g>
				<rect class="cls-42" x="1022.61" y="768.87" width="5" height="5" />
			</g>
			<g>
				<rect class="cls-42" x="940.26" y="727.88" width="5" height="5" />
			</g>
			<g>
				<rect class="cls-42" x="832.14" y="704.51" width="5" height="5" />
			</g>
			<rect class="cls-42" x="1348.43" y="763.95" width="5" height="5" />
			<g>
				<rect class="cls-42" x="1279.29" y="786.43" width="5" height="5" />
			</g>
			<g>
				<rect class="cls-42" x="1206.35" y="803.44" width="5" height="5" />
			</g>
			<g>
				<rect class="cls-42" x="1126.53" y="803.44" width="5" height="5" />
			</g>
			<g>
				<rect class="cls-42" x="807.13" y="697.28" width="5" height="5" />
			</g>
			<g>
				<g>
					<rect class="cls-42" x="684.35" y="682.81" width="5" height="5" />
				</g>
			</g>
			<g>
				<rect class="cls-42" x="447.84" y="681.64" width="5" height="5" />
			</g>
			<rect class="cls-42" x="738.92" y="682.53" width="5" height="5" />
			<g>
				<rect class="cls-42" x="665.45" y="683.28" width="5" height="5" />
			</g>
			<g>
				<rect class="cls-42" x="737.71" y="682.55" width="5" height="5" />
			</g>
			<g>
				<rect class="cls-42" x="358.09" y="640.34" width="5" height="5" transform="translate(720.93 1285.44) rotate(180)" />
			</g>
			<g>
				<rect class="cls-42" x="649.3" y="685.34" width="5" height="5" />
			</g>
			<g>
				<rect class="cls-42" x="629.43" y="683.67" width="5" height="5" />
			</g>
			<rect class="cls-42" x="606.44" y="684.53" width="5" height="5" />
			<g>
				<rect class="cls-42" x="524.74" y="675.51" width="5" height="5" transform="translate(1054.24 1355.76) rotate(180)" />
			</g>
			<g>
				<rect class="cls-42" x="312.6" y="629.33" width="5" height="5" />
			</g>
			<g>
				<rect class="cls-42" x="114.73" y="628.03" width="5" height="5" />
			</g>
			<g>
				<rect class="cls-42" x="388.86" y="676.92" width="5" height="5" transform="translate(782.48 1358.59) rotate(180)" />
			</g>
			<g>
				<rect class="cls-42" x="223.04" y="639.75" width="5" height="5" transform="translate(450.84 1284.26) rotate(180)" />
			</g>
			<rect class="cls-42" x="583.94" y="683.95" width="5" height="5" />
			<rect class="cls-42" x="472.55" y="682.85" width="5" height="5" />
			<g>
				<rect class="cls-42" x="334.17" y="625.51" width="5" height="5" />
			</g>
			<rect class="cls-42" x="257.31" y="637.73" width="5" height="5" />
			<rect class="cls-42" x="53.34" y="614.11" width="5" height="5" />
			<g>
				<rect class="cls-42" x="177.95" y="634.4" width="5" height="5" />
			</g>
			<g>
				<rect class="cls-42" x="149.37" y="630.15" width="5" height="5" />
			</g>
			<g>
				<rect class="cls-42" x="84.04" y="624.68" width="5" height="5" />
			</g>
			<rect class="cls-42" x="556.64" y="680.5" width="5" height="5" />
			<rect class="cls-42" x="494.08" y="683.48" width="5" height="5" />
			<rect class="cls-42" x="410.24" y="680.48" width="5" height="5" />
			<g>
				<rect class="cls-42" x="289.02" y="632.33" width="5" height="5" />
			</g>
		</g>
	</g>
</svg>
